<?xml version="1.0" encoding="UTF-8" standalone="no"?>
<!-- Created with Inkscape (http://www.inkscape.org/) -->

<svg
   width="165.69766mm"
   height="68.428062mm"
   viewBox="0 0 165.69766 68.428062"
   version="1.1"
   id="svg5"
   inkscape:version="1.1.1 (3bf5ae0d25, 2021-09-20)"
   sodipodi:docname="imagine.svg"
   xmlns:inkscape="http://www.inkscape.org/namespaces/inkscape"
   xmlns:sodipodi="http://sodipodi.sourceforge.net/DTD/sodipodi-0.dtd"
   xmlns="http://www.w3.org/2000/svg"
   xmlns:svg="http://www.w3.org/2000/svg">
  <sodipodi:namedview
     id="namedview7"
     pagecolor="#ffffff"
     bordercolor="#999999"
     borderopacity="1"
     inkscape:pageshadow="0"
     inkscape:pageopacity="0"
     inkscape:pagecheckerboard="0"
     inkscape:document-units="mm"
     showgrid="false"
     inkscape:zoom="3.1108586"
     inkscape:cx="288.66629"
     inkscape:cy="138.06478"
     inkscape:window-width="3840"
     inkscape:window-height="2081"
     inkscape:window-x="-9"
     inkscape:window-y="-9"
     inkscape:window-maximized="1"
     inkscape:current-layer="layer1"
     fit-margin-top="0"
     fit-margin-left="0"
     fit-margin-right="0"
     fit-margin-bottom="0" />
  <defs
     id="defs2" />
  <g
     inkscape:label="Laag 1"
     inkscape:groupmode="layer"
     id="layer1"
     transform="translate(-21.014006,-137.46423)">
    <g
       fill="#231f20"
       id="g842"
       transform="matrix(0.07551193,0,0,0.07551193,110.61714,136.78288)"
       style="fill:none;fill-opacity:1;stroke:#000000;stroke-width:3.97288;stroke-miterlimit:4;stroke-dasharray:none;stroke-opacity:1"
       inkscape:export-filename="C:\Users\KA\Documents\imagine.png"
       inkscape:export-xdpi="150"
       inkscape:export-ydpi="150">
      <path
         d="m 359.9,277.27582 c -28.3,33.7 -50.6,91.2 -51.9,132.8 h -22.6 l 25.5,-154.6 c 0.7,-3.2 -0.7,-11.6 -10.3,-12.1 h -89 c -9.2,0.3 -11,9 -10.3,12.1 l 25.5,154.6 h -22.7 c -2.1,-42.3 -24.5,-99.6 -52.6,-133.7 -22.7,-27.5 -33.5,-62.4 -30.3,-98.3 5.8,-66.79999 61,-119.599981 128.2,-122.799981 37.5,-1.8 73,11.5 100,37.3 27.1,25.799981 42,60.599981 42,97.999981 0.1,31.7 -11.1,62.5 -31.5,86.7 z"
         id="path838"
         style="fill:none;fill-opacity:1;stroke:#000000;stroke-width:3.97288;stroke-miterlimit:4;stroke-dasharray:none;stroke-opacity:1"
         sodipodi:nodetypes="ccccccccccccccc" />
    </g>
    <g
       aria-label="Imagine"
       id="text13107"
       style="font-size:50.8001px;line-height:1.25;font-family:'Bauhaus 93';-inkscape-font-specification:'Bauhaus 93, Normal';letter-spacing:-2.64583px;fill:none;stroke:#000000;stroke-width:0.264578">
      <path
         d="m 31.241812,160.38906 v 33.85847 H 21.171089 v -33.85847 z"
         id="path7860" />
      <path
         d="m 68.60602,194.24753 h -9.276971 v -13.34495 q 0,-1.53789 -0.322462,-2.13321 -0.322462,-0.59531 -1.165823,-0.59531 -1.562698,0 -1.562698,2.75333 v 13.32014 h -9.276971 v -13.34495 q 0,-1.53789 -0.347266,-2.13321 -0.322462,-0.59531 -1.165823,-0.59531 -1.537894,0 -1.537894,2.75333 v 13.32014 h -9.276971 v -15.23011 q 0,-4.1672 2.802935,-7.06935 2.802936,-2.92696 6.796498,-2.92696 4.117586,0 7.391811,3.47266 3.646296,-3.47266 7.292592,-3.47266 4.638486,0 7.441421,3.37345 2.207622,2.6293 2.207622,7.66466 z"
         id="path7862" />
      <path
         d="m 85.134251,184.97056 v 9.59943 q -1.141018,0.19844 -2.083598,0.19844 -5.581065,0 -9.301776,-3.6711 -3.72071,-3.6711 -3.72071,-9.20256 0,-5.38263 3.745515,-9.12814 3.77032,-3.74552 9.152947,-3.74552 6.002746,0 9.450605,3.52227 3.472663,3.49747 3.472663,9.57463 v 12.12952 h -9.276971 v -11.45979 q 0,-1.95957 -0.967385,-3.1254 -0.94258,-1.16582 -2.554888,-1.16582 -1.463479,0 -2.530083,1.0666 -1.066604,1.06661 -1.066604,2.53009 0,1.53789 0.967385,2.53008 0.967385,0.99219 2.455669,0.99219 1.215432,0 2.257231,-0.64492 z"
         id="path7864" />
      <path
         d="m 111.80762,184.05278 v 8.50803 q -2.00919,0.74414 -3.84474,0.74414 -4.48965,0 -7.61505,-3.39825 -3.100593,-3.39825 -3.100593,-8.30959 0,-5.30821 3.745513,-8.95451 3.74552,-3.64629 9.20256,-3.64629 2.90215,0 5.55626,1.16582 2.65411,1.16582 4.1672,3.1254 2.53008,3.24942 2.53008,9.4258 v 8.13595 q 0,6.62286 -3.77032,10.74045 -3.74552,4.14239 -9.77307,4.14239 -1.83555,0 -4.63848,-0.91777 v -8.43361 q 1.81074,0.99218 3.6711,0.99218 2.50528,0 3.86954,-1.66191 1.36426,-1.63712 1.36426,-4.7129 v -9.30178 q 0,-3.89434 -3.1502,-3.89434 -1.33946,0 -2.35645,1.0418 -0.99219,1.01699 -0.99219,2.35645 0,1.41387 0.94258,2.35645 0.96738,0.94258 2.38125,0.94258 0.94258,0 1.81075,-0.44649 z"
         id="path7866" />
      <path
         d="m 134.53704,169.51721 v 24.73032 h -9.27698 v -24.73032 z"
         id="path7868"
         sodipodi:nodetypes="ccccc" />
      <path
         d="m 159.39966,194.24753 h -9.27698 v -13.96507 q 0,-2.13321 -1.76113,-2.13321 -1.73633,0 -1.73633,2.13321 v 13.96507 h -9.27697 V 180.4561 q 0,-4.83693 3.19981,-8.13596 3.19981,-3.32383 7.83829,-3.32383 5.30822,0 8.50803,3.84473 2.50528,3.00137 2.50528,8.3592 z"
         id="path7870" />
      <path
         d="m 186.46991,183.38305 h -14.06429 q -0.32246,-1.0666 -0.32246,-1.95957 0,-1.24024 0.44648,-2.43086 h 4.7129 q -0.49609,-2.75333 -3.10059,-2.75333 -1.73633,0 -2.82774,1.48828 -1.09141,1.46348 -1.09141,3.77032 0,2.40606 1.0418,3.89435 1.06661,1.48828 2.77813,1.48828 1.38907,0 2.67891,-1.38906 l 5.28341,6.35001 q -3.6959,2.90215 -8.21036,2.90215 -5.50666,0 -9.25217,-3.6959 -3.74552,-3.69591 -3.74552,-9.15295 0,-5.43224 3.77032,-9.17775 3.79513,-3.74552 9.30178,-3.74552 5.38263,0 9.02892,3.6711 3.6711,3.6463 3.6711,9.00412 0,0.54571 -0.0992,1.73633 z"
         id="path7872" />
    </g>
    <text
       xml:space="preserve"
       style="font-size:10.5833px;line-height:1.25;font-family:sans-serif;letter-spacing:0px;stroke-width:0.264583"
       x="154.4536"
       y="227.51289"
       id="text25247"><tspan
         sodipodi:role="line"
         id="tspan25245"
         style="stroke-width:0.264583"
         x="154.4536"
         y="227.51289" /></text>
  </g>
</svg>
